<svg width="11" height="11" viewBox="0 0 11 11" fill="none" xmlns="http://www.w3.org/2000/svg">
<g clip-path="url(#clip0_19_210)">
<path d="M5.49999 10.4271C8.22114 10.4271 10.4271 8.22114 10.4271 5.49999C10.4271 2.77884 8.22114 0.572906 5.49999 0.572906C2.77884 0.572906 0.572906 2.77884 0.572906 5.49999C0.572906 8.22114 2.77884 10.4271 5.49999 10.4271Z" stroke="black" stroke-width="0.333333" stroke-linecap="round" stroke-linejoin="round"/>
<path d="M5.37029 5.69914L5.6886 7.50406M2.38058 8.09347L2.0625 6.28833L2.64825 6.1852C2.80804 6.15972 2.97145 6.19785 3.10347 6.29142C3.23548 6.38499 3.32559 6.52654 3.35448 6.68575C3.38338 6.84496 3.34875 7.00915 3.25803 7.14314C3.16732 7.27712 3.02772 7.37024 2.86917 7.40254L2.86321 7.40345L2.27746 7.50658M4.01088 7.80587L3.69256 6.00072L4.27923 5.8976C4.43819 5.87379 4.60018 5.91276 4.73091 6.00629C4.86163 6.09981 4.95084 6.24053 4.97964 6.39866C5.00843 6.5568 4.97456 6.71993 4.8852 6.85353C4.79583 6.98714 4.65798 7.08072 4.50083 7.11447L4.49396 7.11585L3.90729 7.2192M4.53681 7.10691L5.20644 7.59481M9.12633 6.67195C9.08208 6.75301 9.01996 6.82292 8.94468 6.8764C8.8694 6.92989 8.78293 6.96553 8.69183 6.98064C8.5312 7.00961 8.36563 6.9736 8.23155 6.88051C8.09746 6.78742 8.00584 6.64489 7.97683 6.48426L7.97569 6.47922L7.87233 5.89256C7.8578 5.81253 7.85926 5.73042 7.87663 5.65096C7.894 5.5715 7.92693 5.49627 7.97352 5.4296C8.02012 5.36294 8.07946 5.30616 8.14811 5.26254C8.21676 5.21893 8.29337 5.18934 8.37352 5.17549C8.46439 5.16122 8.55726 5.16654 8.64592 5.19108C8.73457 5.21563 8.81695 5.25883 8.88754 5.31781M7.60902 5.9856L8.3765 5.85039M7.68854 6.4366L8.45602 6.30139M7.26894 6.60389C7.29791 6.76453 7.26189 6.93009 7.16881 7.06418C7.07572 7.19826 6.93319 7.28988 6.77256 7.31889L6.76729 7.32004C6.60666 7.34901 6.44109 7.31299 6.30701 7.21991C6.17292 7.12682 6.0813 6.98429 6.05229 6.82366L6.05138 6.81862L5.9439 6.20904C5.92941 6.12961 5.9307 6.04812 5.94772 5.9692C5.96473 5.89028 5.99712 5.81548 6.04305 5.74909C6.08897 5.68269 6.14753 5.62599 6.21537 5.58223C6.28321 5.53847 6.35901 5.5085 6.43844 5.49404L6.44531 5.49266C6.52424 5.47878 6.60515 5.48095 6.68322 5.49903C6.76129 5.51711 6.83491 5.55073 6.8997 5.5979C6.96449 5.64506 7.01911 5.70479 7.0603 5.77353C7.1015 5.84227 7.12842 5.9186 7.13946 5.99797M6.64629 3.10085L7.84254 2.89001M7.57442 4.79829L7.25588 2.99337M3.0124 4.68279C3.07168 4.67239 3.13244 4.67377 3.19119 4.68685C3.24994 4.69993 3.30554 4.72446 3.35482 4.75903C3.40409 4.7936 3.44607 4.83753 3.47837 4.88833C3.51066 4.93912 3.53263 4.99578 3.54303 5.05507C3.55343 5.11435 3.55205 5.17511 3.53897 5.23386C3.52588 5.29261 3.50136 5.34821 3.46679 5.39749C3.43222 5.44676 3.38828 5.48874 3.33749 5.52104C3.28669 5.55333 3.23004 5.5753 3.17075 5.5857L2.42733 5.71701L2.10879 3.91187L2.85335 3.78056C2.91321 3.76869 2.97483 3.76889 3.0346 3.78116C3.09437 3.79344 3.15109 3.81752 3.20142 3.85202C3.25176 3.88651 3.29469 3.93071 3.32771 3.98202C3.36073 4.03333 3.38316 4.09072 3.3937 4.15083C3.40423 4.21093 3.40265 4.27253 3.38905 4.33201C3.37545 4.3915 3.3501 4.44766 3.3145 4.49722C3.2789 4.54677 3.23375 4.58871 3.18171 4.62058C3.12968 4.65244 3.0718 4.67359 3.01148 4.68279H3.0124ZM3.0124 4.68279L2.26806 4.8141M4.99331 5.23737L4.09108 5.39664L3.77254 3.59172L4.675 3.43268M3.93181 4.49418L4.51848 4.3906M5.37212 4.97062C5.43745 5.02866 5.51576 5.07015 5.60047 5.09161C5.68518 5.11307 5.7738 5.11385 5.85888 5.09391L6.12929 5.04624C6.18864 5.03578 6.24536 5.01373 6.29618 4.98135C6.34701 4.94897 6.39096 4.90689 6.42552 4.85751C6.46008 4.80814 6.48458 4.75244 6.49761 4.6936C6.51064 4.63476 6.51195 4.57393 6.50146 4.51458C6.48012 4.39488 6.41214 4.28854 6.31245 4.21893C6.21276 4.14932 6.08952 4.12213 5.96979 4.14333L5.67646 4.19512C5.55687 4.21598 5.4339 4.1886 5.33446 4.11897C5.23502 4.04934 5.16723 3.94315 5.14594 3.82364C5.12503 3.70389 5.1525 3.58073 5.22233 3.48122C5.29215 3.3817 5.39861 3.31397 5.51833 3.29289L5.78875 3.24522C5.87363 3.22022 5.96366 3.21848 6.04945 3.24016C6.13523 3.26185 6.21362 3.30618 6.27642 3.36851" stroke="black" stroke-width="0.333333" stroke-linecap="round" stroke-linejoin="round"/>
</g>
<defs>
<clipPath id="clip0_19_210">
<rect width="11" height="11" fill="white"/>
</clipPath>
</defs>
</svg>
