<svg width="11" height="11" viewBox="0 0 11 11" fill="none" xmlns="http://www.w3.org/2000/svg">
<path d="M5.49999 0.916656C5.91066 0.916656 6.30849 0.97074 6.68707 1.07203L5.71266 2.04599C5.63873 2.12021 5.57353 2.20263 5.51832 2.29166H5.49999C4.86544 2.29166 4.24514 2.47982 3.71754 2.83236C3.18993 3.18489 2.77871 3.68597 2.53588 4.27221C2.29305 4.85846 2.22951 5.50355 2.3533 6.1259C2.4771 6.74826 2.78266 7.31993 3.23136 7.76862C3.68005 8.21732 4.25172 8.52288 4.87408 8.64668C5.49643 8.77047 6.14152 8.70693 6.72777 8.4641C7.31401 8.22127 7.81509 7.81005 8.16762 7.28244C8.52016 6.75484 8.70832 6.13454 8.70832 5.49999V5.48166C8.79632 5.42666 8.87882 5.36203 8.95353 5.28686L9.92795 4.31291C10.0292 4.69149 10.0833 5.08932 10.0833 5.49999C10.0833 8.03136 8.03136 10.0833 5.49999 10.0833C2.96862 10.0833 0.916656 8.03136 0.916656 5.49999C0.916656 2.96862 2.96862 0.916656 5.49999 0.916656ZM5.31024 3.21611C5.31024 3.60616 5.29099 4.0017 5.31207 4.39128L5.06457 4.63878C4.97944 4.72392 4.9119 4.82499 4.86582 4.93623C4.81975 5.04747 4.79603 5.16669 4.79603 5.28709C4.79603 5.4075 4.81975 5.52672 4.86582 5.63796C4.9119 5.7492 4.97944 5.85027 5.06457 5.93541C5.14971 6.02054 5.25078 6.08808 5.36202 6.13416C5.47326 6.18023 5.59248 6.20395 5.71289 6.20395C5.83329 6.20395 5.95251 6.18023 6.06375 6.13416C6.17499 6.08808 6.27606 6.02054 6.3612 5.93541L6.6087 5.68791C6.99828 5.70899 7.39336 5.68974 7.78386 5.68974C7.74766 6.12531 7.58765 6.54145 7.3227 6.88907C7.05776 7.23668 6.69893 7.50129 6.28854 7.65166C5.87814 7.80204 5.43331 7.83192 5.00649 7.73779C4.57967 7.64365 4.18868 7.42942 3.87962 7.12036C3.57056 6.8113 3.35633 6.4203 3.26219 5.99349C3.16806 5.56667 3.19794 5.12184 3.34832 4.71144C3.49869 4.30105 3.7633 3.94222 4.11091 3.67728C4.45853 3.41233 4.87467 3.25232 5.31024 3.21611ZM8.48099 0.974865C8.56465 1.00955 8.63616 1.06824 8.68649 1.14354C8.73682 1.21883 8.76371 1.30734 8.76378 1.39791V2.23666H9.60207C9.69271 2.23668 9.7813 2.26357 9.85666 2.31393C9.93201 2.36429 9.99074 2.43587 10.0254 2.51961C10.0601 2.60334 10.0692 2.69548 10.0515 2.78438C10.0338 2.87327 9.99019 2.95493 9.92612 3.01903L8.30499 4.63832C8.21906 4.72428 8.1025 4.77259 7.98095 4.77261H6.87499L6.0367 5.61091C5.9507 5.69685 5.83408 5.7451 5.71249 5.74506C5.59091 5.74502 5.47433 5.69668 5.38839 5.61068C5.30244 5.52468 5.25419 5.40806 5.25423 5.28647C5.25427 5.16489 5.30261 5.04831 5.38862 4.96236L6.22691 4.12499V3.01857C6.22686 2.95831 6.2387 2.89863 6.26174 2.84295C6.28478 2.78727 6.31858 2.73668 6.3612 2.69407L7.98141 1.07386C8.0455 1.00973 8.12718 0.966046 8.21611 0.948342C8.30504 0.930638 8.39722 0.939708 8.48099 0.974406V0.974865Z" fill="black"/>
</svg>
