<svg width="12" height="12" viewBox="0 0 12 12" fill="none" xmlns="http://www.w3.org/2000/svg">
<path d="M3.02 3.886C1.79 4.1645 1.175 4.3035 1.0285 4.774C0.882495 5.244 1.3015 5.7345 2.14 6.715L2.357 6.9685C2.595 7.247 2.7145 7.3865 2.768 7.5585C2.8215 7.731 2.8035 7.917 2.7675 8.2885L2.7345 8.627C2.608 9.9355 2.5445 10.5895 2.9275 10.88C3.3105 11.171 3.8865 10.9055 5.0375 10.3755L5.336 10.2385C5.663 10.0875 5.8265 10.0125 6 10.0125C6.1735 10.0125 6.337 10.0875 6.6645 10.2385L6.962 10.3755C8.1135 10.9055 8.68949 11.1705 9.07199 10.8805C9.45549 10.5895 9.392 9.9355 9.2655 8.627M9.85999 6.715C10.6985 5.735 11.1175 5.2445 10.9715 4.774C10.825 4.3035 10.21 4.164 8.97999 3.886L8.66199 3.814C8.31249 3.735 8.138 3.6955 7.9975 3.589C7.8575 3.4825 7.7675 3.321 7.5875 2.998L7.4235 2.704C6.79 1.568 6.4735 1 6 1C5.5265 1 5.21 1.568 4.5765 2.704" stroke="white" stroke-width="1.5" stroke-linecap="round"/>
</svg>
