<svg width="24" height="23" viewBox="0 0 24 23" fill="none" xmlns="http://www.w3.org/2000/svg">
<path d="M1.16666 10.8958C1.16666 6.96771 1.16666 5.00312 2.43632 3.78333C3.70491 2.5625 5.74807 2.5625 9.83332 2.5625H14.1667C18.2519 2.5625 20.2951 2.5625 21.5637 3.78333C22.8333 5.00312 22.8333 6.96771 22.8333 10.8958V12.9792C22.8333 16.9073 22.8333 18.8719 21.5637 20.0917C20.2951 21.3125 18.2519 21.3125 14.1667 21.3125H9.83332C5.74807 21.3125 3.70491 21.3125 2.43632 20.0917C1.16666 18.8719 1.16666 16.9073 1.16666 12.9792V10.8958Z" stroke="white" stroke-width="1.5"/>
<path d="M6.58331 2.5625V1M17.4166 2.5625V1M1.70831 7.77083H22.2916" stroke="white" stroke-width="1.5" stroke-linecap="round"/>
<path d="M18.5 16.1042C18.5 16.3804 18.3859 16.6454 18.1827 16.8407C17.9795 17.0361 17.704 17.1458 17.4167 17.1458C17.1293 17.1458 16.8538 17.0361 16.6506 16.8407C16.4475 16.6454 16.3333 16.3804 16.3333 16.1042C16.3333 15.8279 16.4475 15.5629 16.6506 15.3676C16.8538 15.1722 17.1293 15.0625 17.4167 15.0625C17.704 15.0625 17.9795 15.1722 18.1827 15.3676C18.3859 15.5629 18.5 15.8279 18.5 16.1042ZM18.5 11.9375C18.5 12.2138 18.3859 12.4787 18.1827 12.6741C17.9795 12.8694 17.704 12.9792 17.4167 12.9792C17.1293 12.9792 16.8538 12.8694 16.6506 12.6741C16.4475 12.4787 16.3333 12.2138 16.3333 11.9375C16.3333 11.6612 16.4475 11.3963 16.6506 11.2009C16.8538 11.0056 17.1293 10.8958 17.4167 10.8958C17.704 10.8958 17.9795 11.0056 18.1827 11.2009C18.3859 11.3963 18.5 11.6612 18.5 11.9375ZM13.0833 16.1042C13.0833 16.3804 12.9692 16.6454 12.766 16.8407C12.5629 17.0361 12.2873 17.1458 12 17.1458C11.7127 17.1458 11.4371 17.0361 11.234 16.8407C11.0308 16.6454 10.9167 16.3804 10.9167 16.1042C10.9167 15.8279 11.0308 15.5629 11.234 15.3676C11.4371 15.1722 11.7127 15.0625 12 15.0625C12.2873 15.0625 12.5629 15.1722 12.766 15.3676C12.9692 15.5629 13.0833 15.8279 13.0833 16.1042ZM13.0833 11.9375C13.0833 12.2138 12.9692 12.4787 12.766 12.6741C12.5629 12.8694 12.2873 12.9792 12 12.9792C11.7127 12.9792 11.4371 12.8694 11.234 12.6741C11.0308 12.4787 10.9167 12.2138 10.9167 11.9375C10.9167 11.6612 11.0308 11.3963 11.234 11.2009C11.4371 11.0056 11.7127 10.8958 12 10.8958C12.2873 10.8958 12.5629 11.0056 12.766 11.2009C12.9692 11.3963 13.0833 11.6612 13.0833 11.9375ZM7.66667 16.1042C7.66667 16.3804 7.55253 16.6454 7.34937 16.8407C7.1462 17.0361 6.87065 17.1458 6.58333 17.1458C6.29602 17.1458 6.02047 17.0361 5.8173 16.8407C5.61414 16.6454 5.5 16.3804 5.5 16.1042C5.5 15.8279 5.61414 15.5629 5.8173 15.3676C6.02047 15.1722 6.29602 15.0625 6.58333 15.0625C6.87065 15.0625 7.1462 15.1722 7.34937 15.3676C7.55253 15.5629 7.66667 15.8279 7.66667 16.1042ZM7.66667 11.9375C7.66667 12.2138 7.55253 12.4787 7.34937 12.6741C7.1462 12.8694 6.87065 12.9792 6.58333 12.9792C6.29602 12.9792 6.02047 12.8694 5.8173 12.6741C5.61414 12.4787 5.5 12.2138 5.5 11.9375C5.5 11.6612 5.61414 11.3963 5.8173 11.2009C6.02047 11.0056 6.29602 10.8958 6.58333 10.8958C6.87065 10.8958 7.1462 11.0056 7.34937 11.2009C7.55253 11.3963 7.66667 11.6612 7.66667 11.9375Z" fill="white"/>
</svg>
