<svg width="26" height="27" viewBox="0 0 26 27" fill="none" xmlns="http://www.w3.org/2000/svg">
<path d="M11.375 16.7088L8.45812 13.7919L7.3125 14.9375L11.375 19L18.6875 11.6875L17.5419 10.5338L11.375 16.7088Z" fill="white"/>
<path d="M20.3125 4.375H17.875V3.5625C17.875 3.13152 17.7038 2.7182 17.399 2.41345C17.0943 2.1087 16.681 1.9375 16.25 1.9375H9.75C9.31902 1.9375 8.9057 2.1087 8.60095 2.41345C8.29621 2.7182 8.125 3.13152 8.125 3.5625V4.375H5.6875C5.25652 4.375 4.8432 4.5462 4.53845 4.85095C4.2337 5.1557 4.0625 5.56902 4.0625 6V23.0625C4.0625 23.4935 4.2337 23.9068 4.53845 24.2115C4.8432 24.5163 5.25652 24.6875 5.6875 24.6875H20.3125C20.7435 24.6875 21.1568 24.5163 21.4615 24.2115C21.7663 23.9068 21.9375 23.4935 21.9375 23.0625V6C21.9375 5.56902 21.7663 5.1557 21.4615 4.85095C21.1568 4.5462 20.7435 4.375 20.3125 4.375ZM9.75 3.5625H16.25V6.8125H9.75V3.5625ZM20.3125 23.0625H5.6875V6H8.125V8.4375H17.875V6H20.3125V23.0625Z" fill="white"/>
</svg>
