<svg width="9" height="9" viewBox="0 0 9 9" fill="none" xmlns="http://www.w3.org/2000/svg">
<path d="M1.5 8.25H7.5" stroke="black" stroke-linecap="round"/>
<path d="M6.87647 3.04164L7.15472 2.76414C7.2643 2.65459 7.35122 2.52453 7.41053 2.38139C7.46984 2.23825 7.50037 2.08483 7.50039 1.92989C7.50041 1.77495 7.46991 1.62153 7.41063 1.47837C7.35135 1.33522 7.26446 1.20514 7.15491 1.09557C7.04536 0.986001 6.91531 0.899079 6.77217 0.83977C6.62903 0.780461 6.47561 0.749926 6.32067 0.749908C6.16573 0.749891 6.0123 0.780392 5.86915 0.839669C5.726 0.898946 5.59592 0.985838 5.48635 1.09539L5.2081 1.37364C5.2081 1.37364 5.24297 1.96464 5.76422 2.48589C6.28547 3.00714 6.87647 3.04201 6.87647 3.04201L4.3201 5.59839C4.14685 5.77164 4.0606 5.85789 3.96497 5.93251C3.85247 6.02026 3.7306 6.09564 3.6016 6.15714C3.49247 6.20926 3.37622 6.24789 3.1441 6.32514L2.15935 6.65364M5.2081 1.37326L2.65172 3.93001C2.47847 4.10326 2.39185 4.18951 2.3176 4.28514C2.22974 4.39774 2.15442 4.51958 2.09297 4.64851C2.04085 4.75764 2.00222 4.87389 1.9246 5.10601L1.59647 6.09076M1.59647 6.09076L1.5166 6.33114C1.49788 6.38718 1.49514 6.44734 1.5087 6.50485C1.52225 6.56237 1.55157 6.61497 1.59335 6.65676C1.63514 6.69854 1.68774 6.72786 1.74525 6.74141C1.80277 6.75497 1.86293 6.75223 1.91897 6.73351L2.15935 6.65364M1.59647 6.09076L2.15935 6.65364" stroke="black"/>
</svg>
