<svg width="6" height="6" viewBox="0 0 6 6" fill="none" xmlns="http://www.w3.org/2000/svg">
<g clip-path="url(#clip0_27_348)">
<path d="M1.25 1.25H2.75C2.8875 1.25 3 1.1375 3 1C3 0.8625 2.8875 0.75 2.75 0.75H1.25C0.975 0.75 0.75 0.975 0.75 1.25V4.75C0.75 5.025 0.975 5.25 1.25 5.25H2.75C2.8875 5.25 3 5.1375 3 5C3 4.8625 2.8875 4.75 2.75 4.75H1.25V1.25Z" fill="black"/>
<path d="M5.1625 2.91249L4.465 2.21499C4.44761 2.19713 4.42529 2.18486 4.40089 2.17976C4.37649 2.17466 4.35112 2.17695 4.32804 2.18635C4.30495 2.19574 4.28519 2.21182 4.27129 2.23251C4.25738 2.2532 4.24997 2.27757 4.25 2.30249V2.74999H2.5C2.3625 2.74999 2.25 2.86249 2.25 2.99999C2.25 3.13749 2.3625 3.24999 2.5 3.24999H4.25V3.69749C4.25 3.80999 4.385 3.86499 4.4625 3.78499L5.16 3.08749C5.21 3.03999 5.21 2.95999 5.1625 2.91249Z" fill="black"/>
</g>
<defs>
<clipPath id="clip0_27_348">
<rect width="6" height="6" fill="white"/>
</clipPath>
</defs>
</svg>
