<svg width="26" height="26" viewBox="0 0 26 26" fill="none" xmlns="http://www.w3.org/2000/svg">
<path d="M23.8355 5.148C23.8355 5.9387 23.5214 6.69701 22.9623 7.25612C22.4032 7.81523 21.6449 8.12933 20.8542 8.12933H5.14799C4.35729 8.12933 3.59898 7.81523 3.03987 7.25612C2.48076 6.69701 2.16666 5.9387 2.16666 5.148C2.16666 4.3573 2.48076 3.59898 3.03987 3.03988C3.59898 2.48077 4.35729 2.16666 5.14799 2.16666H20.8542C21.6449 2.16666 22.4032 2.48077 22.9623 3.03988C23.5214 3.59898 23.8355 4.3573 23.8355 5.148ZM21.6688 12.7313C21.6688 13.522 21.3547 14.2803 20.7956 14.8395C20.2365 15.3986 19.4782 15.7127 18.6875 15.7127H7.31466C6.52396 15.7127 5.76564 15.3986 5.20654 14.8395C4.64743 14.2803 4.33332 13.522 4.33332 12.7313C4.33332 11.9406 4.64743 11.1823 5.20654 10.6232C5.76564 10.0641 6.52396 9.75 7.31466 9.75H18.6875C19.4782 9.75 20.2365 10.0641 20.7956 10.6232C21.3547 11.1823 21.6688 11.9406 21.6688 12.7313ZM18.4188 20.3147C18.4188 21.1054 18.1047 21.8637 17.5456 22.4228C16.9865 22.9819 16.2282 23.296 15.4375 23.296H10.5647C9.77396 23.296 9.01564 22.9819 8.45654 22.4228C7.89743 21.8637 7.58332 21.1054 7.58332 20.3147C7.58332 19.524 7.89743 18.7657 8.45654 18.2065C9.01564 17.6474 9.77396 17.3333 10.5647 17.3333H15.4375C15.829 17.3333 16.2167 17.4104 16.5784 17.5603C16.9401 17.7101 17.2688 17.9297 17.5456 18.2065C17.8225 18.4834 18.0421 18.812 18.1919 19.1738C18.3417 19.5355 18.4188 19.9232 18.4188 20.3147ZM22.2105 5.148C22.2105 4.39833 21.6038 3.79166 20.8542 3.79166H5.14799C4.96987 3.79166 4.7935 3.82675 4.62894 3.89491C4.46439 3.96307 4.31486 4.06298 4.18892 4.18893C4.06297 4.31487 3.96306 4.46439 3.8949 4.62895C3.82674 4.79351 3.79166 4.96988 3.79166 5.148C3.79166 5.32611 3.82674 5.50249 3.8949 5.66704C3.96306 5.8316 4.06297 5.98112 4.18892 6.10707C4.31486 6.23302 4.46439 6.33292 4.62894 6.40109C4.7935 6.46925 4.96987 6.50433 5.14799 6.50433H20.8542C21.6038 6.50433 22.2105 5.89766 22.2105 5.148ZM20.0438 12.7313C20.0438 11.9817 19.4372 11.375 18.6875 11.375H7.31466C6.95493 11.375 6.60995 11.5179 6.35558 11.7723C6.10122 12.0266 5.95832 12.3716 5.95832 12.7313C5.95832 13.0911 6.10122 13.436 6.35558 13.6904C6.60995 13.9448 6.95493 14.0877 7.31466 14.0877H18.6875C19.4372 14.0877 20.0438 13.481 20.0438 12.7313ZM16.7938 20.3147C16.7938 19.5661 16.1872 18.9583 15.4375 18.9583H10.5647C10.2049 18.9583 9.85995 19.1012 9.60558 19.3556C9.35122 19.61 9.20832 19.9549 9.20832 20.3147C9.20832 20.6744 9.35122 21.0194 9.60558 21.2737C9.85995 21.5281 10.2049 21.671 10.5647 21.671H15.4375C16.1861 21.671 16.7938 21.0643 16.7938 20.3147Z" fill="white"/>
</svg>
