<svg width="26" height="27" viewBox="0 0 26 27" fill="none" xmlns="http://www.w3.org/2000/svg">
<path d="M16.1644 10.7411C16.7185 10.7411 17.25 10.9612 17.6418 11.353C18.0336 11.7448 18.2537 12.2762 18.2537 12.8304V18.633C18.2537 19.9877 17.7155 21.287 16.7576 22.2449C15.7996 23.2029 14.5004 23.7411 13.1456 23.7411C11.7909 23.7411 10.4916 23.2029 9.53369 22.2449C8.57574 21.287 8.03757 19.9877 8.03757 18.633V12.8304C8.03757 12.2762 8.25769 11.7448 8.64951 11.353C9.04133 10.9612 9.57274 10.7411 10.1269 10.7411H16.1644ZM16.1644 12.1339H10.1269C9.94215 12.1339 9.76501 12.2073 9.63441 12.3379C9.5038 12.4685 9.43043 12.6457 9.43043 12.8304V18.633C9.43043 19.6183 9.82185 20.5633 10.5186 21.2601C11.2153 21.9568 12.1603 22.3482 13.1456 22.3482C14.131 22.3482 15.076 21.9568 15.7727 21.2601C16.4694 20.5633 16.8609 19.6183 16.8609 18.633V12.8304C16.8609 12.6457 16.7875 12.4685 16.6569 12.3379C16.5263 12.2073 16.3491 12.1339 16.1644 12.1339ZM4.08929 10.7411H7.94843C7.57563 11.1292 7.31366 11.6102 7.18979 12.1339H4.08929C3.90458 12.1339 3.72744 12.2073 3.59684 12.3379C3.46623 12.4685 3.39286 12.6457 3.39286 12.8304V17.7044C3.39273 18.1703 3.50943 18.6288 3.73228 19.038C3.95512 19.4472 4.277 19.7939 4.66847 20.0466C5.05994 20.2992 5.50851 20.4497 5.97315 20.4842C6.43778 20.5187 6.90365 20.4361 7.32814 20.2441C7.45164 20.6991 7.629 21.1318 7.85186 21.5366C7.21566 21.8144 6.5203 21.9293 5.82856 21.8711C5.13683 21.8128 4.4705 21.5831 3.88976 21.2028C3.30902 20.8225 2.83215 20.3035 2.50222 19.6927C2.17229 19.082 1.99969 18.3986 2 17.7044V12.8304C2 12.2762 2.22012 11.7448 2.61194 11.353C3.00376 10.9612 3.53517 10.7411 4.08929 10.7411ZM22.1964 10.7411C22.7505 10.7411 23.282 10.9612 23.6738 11.353C24.0656 11.7448 24.2857 12.2762 24.2857 12.8304V17.7054C24.286 18.3991 24.1135 19.0821 23.7838 19.6926C23.4542 20.303 22.9777 20.8218 22.3974 21.2021C21.8171 21.5823 21.1512 21.8121 20.4599 21.8707C19.7686 21.9293 19.0736 21.8148 18.4376 21.5376L18.4896 21.4429C18.6883 21.0659 18.8489 20.6656 18.9641 20.2459C19.3883 20.4368 19.8536 20.5184 20.3175 20.4833C20.7814 20.4482 21.2292 20.2974 21.6198 20.0448C22.0105 19.7921 22.3317 19.4457 22.554 19.0371C22.7764 18.6284 22.8929 18.1706 22.8929 17.7054V12.8304C22.8929 12.6458 22.8196 12.4688 22.6892 12.3382C22.5588 12.2077 22.3819 12.1342 22.1974 12.1339H19.1024C18.9783 11.6101 18.716 11.1291 18.3429 10.7411H22.1964ZM13.1429 3.3125C13.5697 3.3125 13.9923 3.39656 14.3866 3.55989C14.7809 3.72322 15.1392 3.96261 15.441 4.2644C15.7427 4.56619 15.9821 4.92447 16.1455 5.31878C16.3088 5.71309 16.3929 6.1357 16.3929 6.5625C16.3929 6.9893 16.3088 7.41191 16.1455 7.80622C15.9821 8.20053 15.7427 8.55881 15.441 8.8606C15.1392 9.16239 14.7809 9.40178 14.3866 9.56511C13.9923 9.72844 13.5697 9.8125 13.1429 9.8125C12.2809 9.8125 11.4543 9.47009 10.8448 8.8606C10.2353 8.2511 9.89286 7.42445 9.89286 6.5625C9.89286 5.70055 10.2353 4.8739 10.8448 4.2644C11.4543 3.65491 12.2809 3.3125 13.1429 3.3125ZM20.5742 4.24107C20.94 4.24107 21.3023 4.31313 21.6403 4.45312C21.9782 4.59312 22.2853 4.79831 22.544 5.05699C22.8027 5.31567 23.0079 5.62276 23.1479 5.96074C23.2879 6.29872 23.3599 6.66096 23.3599 7.02679C23.3599 7.39261 23.2879 7.75485 23.1479 8.09283C23.0079 8.43081 22.8027 8.73791 22.544 8.99658C22.2853 9.25526 21.9782 9.46045 21.6403 9.60045C21.3023 9.74045 20.94 9.8125 20.5742 9.8125C19.8354 9.8125 19.1268 9.51901 18.6044 8.99658C18.082 8.47416 17.7885 7.7656 17.7885 7.02679C17.7885 6.28797 18.082 5.57941 18.6044 5.05699C19.1268 4.53457 19.8354 4.24107 20.5742 4.24107ZM5.7115 4.24107C6.07733 4.24107 6.43957 4.31313 6.77755 4.45312C7.11553 4.59312 7.42262 4.79831 7.6813 5.05699C7.93998 5.31567 8.14517 5.62276 8.28516 5.96074C8.42516 6.29872 8.49721 6.66096 8.49721 7.02679C8.49721 7.39261 8.42516 7.75485 8.28516 8.09283C8.14517 8.43081 7.93998 8.73791 7.6813 8.99658C7.42262 9.25526 7.11553 9.46045 6.77755 9.60045C6.43957 9.74045 6.07733 9.8125 5.7115 9.8125C4.97268 9.8125 4.26413 9.51901 3.7417 8.99658C3.21928 8.47416 2.92579 7.7656 2.92579 7.02679C2.92579 6.28797 3.21928 5.57941 3.7417 5.05699C4.26413 4.53457 4.97268 4.24107 5.7115 4.24107ZM13.1429 4.70536C12.6503 4.70536 12.1779 4.90102 11.8297 5.2493C11.4814 5.59758 11.2857 6.06995 11.2857 6.5625C11.2857 7.05504 11.4814 7.52742 11.8297 7.8757C12.1779 8.22398 12.6503 8.41964 13.1429 8.41964C13.6354 8.41964 14.1078 8.22398 14.4561 7.8757C14.8043 7.52742 15 7.05504 15 6.5625C15 6.06995 14.8043 5.59758 14.4561 5.2493C14.1078 4.90102 13.6354 4.70536 13.1429 4.70536ZM20.5742 5.63393C20.3913 5.63393 20.2102 5.66996 20.0412 5.73995C19.8722 5.80995 19.7187 5.91255 19.5893 6.04189C19.46 6.17123 19.3574 6.32477 19.2874 6.49376C19.2174 6.66275 19.1814 6.84387 19.1814 7.02679C19.1814 7.2097 19.2174 7.39082 19.2874 7.55981C19.3574 7.7288 19.46 7.88235 19.5893 8.01168C19.7187 8.14102 19.8722 8.24362 20.0412 8.31362C20.2102 8.38362 20.3913 8.41964 20.5742 8.41964C20.9436 8.41964 21.2979 8.2729 21.5591 8.01168C21.8203 7.75047 21.9671 7.39619 21.9671 7.02679C21.9671 6.65738 21.8203 6.3031 21.5591 6.04189C21.2979 5.78068 20.9436 5.63393 20.5742 5.63393ZM5.7115 5.63393C5.52859 5.63393 5.34747 5.66996 5.17848 5.73995C5.00949 5.80995 4.85594 5.91255 4.7266 6.04189C4.59726 6.17123 4.49467 6.32477 4.42467 6.49376C4.35467 6.66275 4.31864 6.84387 4.31864 7.02679C4.31864 7.2097 4.35467 7.39082 4.42467 7.55981C4.49467 7.7288 4.59726 7.88235 4.7266 8.01168C4.85594 8.14102 5.00949 8.24362 5.17848 8.31362C5.34747 8.38362 5.52859 8.41964 5.7115 8.41964C6.08091 8.41964 6.43519 8.2729 6.6964 8.01168C6.95761 7.75047 7.10436 7.39619 7.10436 7.02679C7.10436 6.65738 6.95761 6.3031 6.6964 6.04189C6.43519 5.78068 6.08091 5.63393 5.7115 5.63393Z" fill="white"/>
</svg>
