<svg width="18" height="19" viewBox="0 0 18 19" fill="none" xmlns="http://www.w3.org/2000/svg">
<rect y="0.3125" width="18" height="18" rx="9" fill="#0011AA" fill-opacity="0.7"/>
<path d="M8.64645 12.6869C8.84171 12.8821 9.15829 12.8821 9.35355 12.6869L12.5355 9.50487C12.7308 9.30961 12.7308 8.99303 12.5355 8.79776C12.3403 8.6025 12.0237 8.6025 11.8284 8.79776L9 11.6262L6.17157 8.79776C5.97631 8.6025 5.65973 8.6025 5.46447 8.79776C5.2692 8.99303 5.2692 9.30961 5.46447 9.50487L8.64645 12.6869ZM9.5 6.3125C9.5 6.03636 9.27614 5.8125 9 5.8125C8.72386 5.8125 8.5 6.03636 8.5 6.3125H9.5ZM9.5 12.3333L9.5 6.3125H8.5V12.3333H9.5Z" fill="white"/>
</svg>
