<svg width="12" height="12" viewBox="0 0 12 12" fill="none" xmlns="http://www.w3.org/2000/svg">
<g clip-path="url(#clip0_65_28)">
<path d="M4.917 0C7.6332 0 9.8346 2.172 9.8346 4.8504C9.83545 6.01278 9.41389 7.13587 8.6484 8.0106L11.8812 11.2944C11.9197 11.3333 11.9501 11.3795 11.9706 11.4303C11.991 11.4812 12.0011 11.5355 12.0003 11.5903C11.9994 11.6451 11.9877 11.6991 11.9657 11.7493C11.9437 11.7994 11.9119 11.8447 11.8722 11.8824C11.7915 11.9592 11.684 12.0013 11.5726 11.9997C11.4612 11.9981 11.3549 11.953 11.2764 11.874L8.0466 8.592C7.16273 9.31196 6.05698 9.70394 4.917 9.7014C2.202 9.7014 0 7.5294 0 4.8504C0 2.172 2.202 0 4.917 0ZM4.917 0.8316C2.667 0.8316 0.843 2.631 0.843 4.8504C0.843 7.0704 2.667 8.8698 4.917 8.8698C7.167 8.8698 8.9916 7.0698 8.9916 4.8504C8.9916 2.6304 7.1676 0.8316 4.9176 0.8316H4.917Z" fill="black"/>
</g>
<defs>
<clipPath id="clip0_65_28">
<rect width="12" height="12" fill="white"/>
</clipPath>
</defs>
</svg>
