<svg width="18" height="18" viewBox="0 0 18 18" fill="none" xmlns="http://www.w3.org/2000/svg">
<path d="M10.0486 0.817934C9.7752 -0.273316 8.22607 -0.273316 7.95157 0.817934L7.8717 1.13968C7.82496 1.32667 7.72904 1.49774 7.59389 1.63514C7.45874 1.77255 7.28927 1.87128 7.10309 1.9211C6.9169 1.97092 6.72078 1.97 6.53506 1.91845C6.34935 1.8669 6.18082 1.76659 6.04695 1.62793L5.81632 1.39056C5.03445 0.581684 3.69232 1.35681 4.0017 2.43793L4.0917 2.75743C4.14458 2.94255 4.14702 3.13843 4.09877 3.32481C4.05051 3.51118 3.95332 3.68127 3.81724 3.81746C3.68117 3.95365 3.51116 4.05099 3.32483 4.0994C3.13849 4.14781 2.94261 4.14554 2.75745 4.09281L2.43795 4.00168C1.35795 3.69231 0.581699 5.03443 1.39057 5.81631L1.62795 6.04693C1.76661 6.1808 1.86692 6.34934 1.91847 6.53505C1.97002 6.72076 1.97093 6.91689 1.92112 7.10307C1.8713 7.28926 1.77256 7.45872 1.63516 7.59387C1.49775 7.72903 1.32668 7.82495 1.1397 7.87168L0.817949 7.95156C-0.273301 8.22493 -0.273301 9.77406 0.817949 10.0486L1.1397 10.1284C1.32668 10.1752 1.49775 10.2711 1.63516 10.4062C1.77256 10.5414 1.8713 10.7109 1.92112 10.897C1.97093 11.0832 1.97002 11.2794 1.91847 11.4651C1.86692 11.6508 1.76661 11.8193 1.62795 11.9532L1.39057 12.1838C0.581699 12.9657 1.35682 14.3078 2.43795 13.9984L2.75745 13.9084C2.94268 13.8554 3.13871 13.853 3.32522 13.9013C3.51172 13.9496 3.68192 14.0469 3.81815 14.1831C3.95438 14.3193 4.05169 14.4895 4.09998 14.676C4.14828 14.8625 4.14581 15.0586 4.09282 15.2438L4.0017 15.5622C3.69232 16.6422 5.03445 17.4184 5.81632 16.6096L6.04695 16.3722C6.18082 16.2335 6.34935 16.1332 6.53506 16.0817C6.72078 16.0301 6.9169 16.0292 7.10309 16.079C7.28927 16.1288 7.45874 16.2276 7.59389 16.365C7.72904 16.5024 7.82496 16.6735 7.8717 16.8604L7.95157 17.1822C8.22495 18.2734 9.77407 18.2734 10.0486 17.1822L10.1284 16.8604C10.1752 16.6735 10.2711 16.5024 10.4063 16.365C10.5414 16.2276 10.7109 16.1288 10.8971 16.079C11.0832 16.0292 11.2794 16.0301 11.4651 16.0817C11.6508 16.1332 11.8193 16.2335 11.9532 16.3722L12.1838 16.6096C12.9657 17.4184 14.3078 16.6433 13.9984 15.5622L13.9084 15.2427C13.8555 15.0575 13.853 14.8614 13.9013 14.6749C13.9496 14.4884 14.0469 14.3182 14.1831 14.182C14.3194 14.0458 14.4895 13.9484 14.6761 13.9002C14.8626 13.8519 15.0586 13.8543 15.2438 13.9073L15.5622 13.9984C16.6422 14.3078 17.4184 12.9657 16.6096 12.1838L16.3722 11.9532C16.2335 11.8193 16.1332 11.6508 16.0817 11.4651C16.0301 11.2794 16.0292 11.0832 16.079 10.897C16.1289 10.7109 16.2276 10.5414 16.365 10.4062C16.5024 10.2711 16.6735 10.1752 16.8604 10.1284L17.1822 10.0486C18.2734 9.77518 18.2734 8.22606 17.1822 7.95156L16.8604 7.87168C16.6735 7.82495 16.5024 7.72903 16.365 7.59387C16.2276 7.45872 16.1289 7.28926 16.079 7.10307C16.0292 6.91689 16.0301 6.72076 16.0817 6.53505C16.1332 6.34934 16.2335 6.1808 16.3722 6.04693L16.6096 5.81631C17.4184 5.03443 16.6433 3.69231 15.5622 4.00168L15.2427 4.09168C15.0576 4.14457 14.8617 4.14701 14.6753 4.09875C14.489 4.0505 14.3189 3.9533 14.1827 3.81723C14.0465 3.68115 13.9491 3.51115 13.9007 3.32481C13.8523 3.13848 13.8546 2.94259 13.9073 2.75743L13.9984 2.43793C14.3078 1.35793 12.9657 0.581684 12.1838 1.39056L11.9532 1.62793C11.8193 1.76659 11.6508 1.8669 11.4651 1.91845C11.2794 1.97 11.0832 1.97092 10.8971 1.9211C10.7109 1.87128 10.5414 1.77255 10.4063 1.63514C10.2711 1.49774 10.1752 1.32667 10.1284 1.13968L10.0486 0.817934ZM9.00007 14.6217C8.25507 14.6322 7.51539 14.4946 6.82404 14.2168C6.13269 13.939 5.50344 13.5265 4.97288 13.0034C4.44231 12.4803 4.021 11.8569 3.73344 11.1696C3.44588 10.4822 3.29779 9.74458 3.29779 8.9995C3.29779 8.25441 3.44588 7.51676 3.73344 6.82941C4.021 6.14205 4.44231 5.51871 4.97288 4.99559C5.50344 4.47248 6.13269 4.06003 6.82404 3.78222C7.51539 3.50441 8.25507 3.36677 9.00007 3.37731C10.4913 3.37731 11.9215 3.9697 12.976 5.02417C14.0304 6.07864 14.6228 7.50881 14.6228 9.00006C14.6228 10.4913 14.0304 11.9215 12.976 12.9759C11.9215 14.0304 10.4913 14.6228 9.00007 14.6228V14.6217Z" fill="white"/>
</svg>
