<svg width="26" height="27" viewBox="0 0 26 27" fill="none" xmlns="http://www.w3.org/2000/svg">
<path d="M13 2.3125C10.9453 2.3125 9.27783 3.95772 9.19542 5.98937C7.47742 6.72208 6.01343 7.94318 4.98585 9.50051C3.95827 11.0578 3.41254 12.8826 3.41667 14.7473C3.41667 14.9099 3.409 15.0916 3.41667 15.2858C2.28104 15.9515 1.5 17.1721 1.5 18.5734C1.5 20.6748 3.22787 22.3995 5.33333 22.3995C5.88437 22.3995 6.41625 22.2828 6.89062 22.0704C8.55142 23.4631 10.7172 24.3125 13 24.3125C15.2827 24.3125 17.4486 23.4631 19.1094 22.0704C19.5995 22.2882 20.1302 22.4003 20.6667 22.3995C22.7721 22.3995 24.5 20.6748 24.5 18.5734C24.5 17.1577 23.7094 15.9171 22.5546 15.2542C22.569 15.1012 22.5833 14.9482 22.5833 14.7473C22.5877 12.8825 22.0421 11.0577 21.0145 9.5003C19.9869 7.94292 18.5227 6.72187 16.8046 5.98937C16.7212 3.95772 15.0537 2.3125 13 2.3125ZM13 4.22554C14.0695 4.22554 14.9167 5.07111 14.9167 6.13859C14.9167 7.20607 14.0695 8.05163 13 8.05163C11.9305 8.05163 11.0833 7.20607 11.0833 6.13859C11.0833 5.07111 11.9305 4.22554 13 4.22554ZM9.61708 7.90241C10.2592 9.12102 11.5337 9.96467 13 9.96467C14.4662 9.96467 15.7408 9.12102 16.3829 7.90241C17.6695 8.52597 18.7538 9.49893 19.5115 10.7096C20.2692 11.9204 20.6696 13.3198 20.6667 14.7473C18.5612 14.7473 16.8333 16.4719 16.8333 18.5734C16.8333 19.4295 17.1304 20.2052 17.6125 20.8451C16.2824 21.8447 14.6649 22.3898 13 22.3995C11.335 22.39 9.71752 21.8449 8.38754 20.8451C8.88909 20.1932 9.16276 19.3953 9.16667 18.5734C9.16667 16.4719 7.43879 14.7473 5.33333 14.7473C5.33333 11.7629 7.04875 9.14589 9.61708 7.90241ZM5.33333 16.6603C6.40283 16.6603 7.25 17.5059 7.25 18.5734C7.25 19.6408 6.40283 20.4864 5.33333 20.4864C4.26383 20.4864 3.41667 19.6408 3.41667 18.5734C3.41667 17.5059 4.26383 16.6603 5.33333 16.6603ZM20.6667 16.6603C21.7362 16.6603 22.5833 17.5059 22.5833 18.5734C22.5833 19.6408 21.7362 20.4864 20.6667 20.4864C19.5972 20.4864 18.75 19.6408 18.75 18.5734C18.75 17.5059 19.5972 16.6603 20.6667 16.6603Z" fill="white"/>
</svg>
