<svg width="26" height="24" viewBox="0 0 26 24" fill="none" xmlns="http://www.w3.org/2000/svg">
<g clip-path="url(#clip0_1_76)">
<path d="M20.93 22.4911H5.06999C4.54586 22.4939 4.02699 22.3985 3.54748 22.2113C3.06798 22.024 2.6387 21.7491 2.28788 21.4047C1.93705 21.0602 1.67261 20.6539 1.51195 20.2126C1.35129 19.7712 1.29804 19.3048 1.35571 18.8439L2.59999 9.1675C2.65049 8.76381 2.86823 8.39099 3.21119 8.12097C3.55415 7.85095 3.99802 7.70289 4.45714 7.70535H21.5428C22.002 7.70289 22.4458 7.85095 22.7888 8.12097C23.1318 8.39099 23.3495 8.76381 23.4 9.1675L24.6071 18.8439C24.6644 19.302 24.6122 19.7657 24.4537 20.2047C24.2952 20.6438 24.0341 21.0484 23.6873 21.3924C23.3406 21.7364 22.9158 22.0119 22.4408 22.2012C21.9657 22.3905 21.451 22.4893 20.93 22.4911Z" stroke="white" stroke-width="2" stroke-linecap="round" stroke-linejoin="round"/>
<path d="M5.57141 7.70536C5.57141 5.9625 6.35406 4.29104 7.74719 3.05865C9.14032 1.82627 11.0298 1.13393 13 1.13393C14.9702 1.13393 16.8596 1.82627 18.2528 3.05865C19.6459 4.29104 20.4286 5.9625 20.4286 7.70536M8.35713 12.6339H17.6428" stroke="white" stroke-width="2" stroke-linecap="round" stroke-linejoin="round"/>
</g>
<defs>
<clipPath id="clip0_1_76">
<rect width="26" height="23" fill="white" transform="translate(0 0.3125)"/>
</clipPath>
</defs>
</svg>
