<svg width="26" height="27" viewBox="0 0 26 27" fill="none" xmlns="http://www.w3.org/2000/svg">
<path d="M13 2.47917C13.4062 2.47917 13.8071 2.50083 14.2025 2.54525C14.3439 2.5609 14.4808 2.60425 14.6055 2.67282C14.7302 2.7414 14.8401 2.83385 14.929 2.94491C15.0179 3.05597 15.0841 3.18346 15.1238 3.32009C15.1634 3.45673 15.1758 3.59984 15.1602 3.74125C15.1445 3.88266 15.1012 4.01961 15.0326 4.14427C14.964 4.26892 14.8716 4.37886 14.7605 4.46778C14.6494 4.55671 14.5219 4.62289 14.3853 4.66255C14.2487 4.70221 14.1056 4.71457 13.9642 4.69892C12.1789 4.4992 10.3756 4.85918 8.80389 5.72908C7.23214 6.59898 5.96954 7.9358 5.19074 9.55463C4.41195 11.1735 4.15544 12.9943 4.45671 14.7653C4.75797 16.5363 5.60211 18.1699 6.87237 19.4401C8.14264 20.7104 9.77624 21.5545 11.5472 21.8558C13.3182 22.157 15.139 21.9005 16.7579 21.1217C18.3767 20.3429 19.7135 19.0804 20.5834 17.5086C21.4533 15.9368 21.8133 14.1336 21.6136 12.3483C21.5979 12.2069 21.6103 12.0638 21.6499 11.9272C21.6896 11.7905 21.7558 11.6631 21.8447 11.552C22.0243 11.3277 22.2856 11.1839 22.5712 11.1523C22.8568 11.1207 23.1433 11.2039 23.3676 11.3835C23.4786 11.4724 23.5711 11.5823 23.6397 11.707C23.7082 11.8316 23.7516 11.9686 23.7672 12.11C23.8106 12.5054 23.8333 12.9062 23.8333 13.3125C23.8333 19.2957 18.9832 24.1458 13 24.1458C7.01674 24.1458 2.16666 19.2957 2.16666 13.3125C2.16666 7.32925 7.01674 2.47917 13 2.47917ZM12.9653 8.84592C13.0367 9.12403 12.9948 9.41912 12.8487 9.66633C12.7027 9.91355 12.4645 10.0927 12.1864 10.1643C11.4225 10.3644 10.7575 10.8356 10.3155 11.49C9.87353 12.1444 9.68472 12.9372 9.78433 13.7206C9.88394 14.5039 10.2652 15.2243 10.8569 15.7472C11.4486 16.2702 12.2103 16.5599 13 16.5625C13.7205 16.5622 14.4204 16.3227 14.99 15.8815C15.5596 15.4403 15.9666 14.8225 16.1471 14.125C16.2189 13.8467 16.3983 13.6084 16.6459 13.4624C16.8934 13.3164 17.1888 13.2748 17.4671 13.3466C17.7454 13.4185 17.9837 13.5979 18.1297 13.8454C18.2757 14.093 18.3173 14.3884 18.2455 14.6667C17.9132 15.9406 17.1284 17.05 16.0378 17.7875C14.9473 18.5251 13.6255 18.8403 12.3194 18.6745C11.0133 18.5086 9.81232 17.8729 8.94075 16.8861C8.06917 15.8994 7.58665 14.6291 7.58332 13.3125C7.58351 12.1116 7.98261 10.9448 8.71794 9.99533C9.45326 9.04588 10.4831 8.36759 11.6458 8.067C11.7836 8.03149 11.927 8.02346 12.0679 8.04339C12.2088 8.06332 12.3444 8.1108 12.4669 8.18313C12.5895 8.25547 12.6965 8.35123 12.782 8.46495C12.8676 8.57867 12.9298 8.70812 12.9653 8.84592ZM20.046 2.61675C20.2437 2.69874 20.4127 2.83747 20.5317 3.01543C20.6507 3.19339 20.7142 3.40261 20.7144 3.61667V5.59917H22.6958C22.9101 5.59921 23.1195 5.66277 23.2976 5.78181C23.4757 5.90086 23.6145 6.07003 23.6965 6.26796C23.7784 6.46588 23.7999 6.68367 23.7581 6.89378C23.7163 7.1039 23.6132 7.29691 23.4617 7.44842L19.63 11.2758C19.4269 11.479 19.1514 11.5932 18.8641 11.5932H16.25L14.2697 13.5747C14.0664 13.7779 13.7907 13.8921 13.5032 13.8921C13.2157 13.8921 12.94 13.7779 12.7367 13.5747C12.5335 13.3714 12.4193 13.0957 12.4193 12.8082C12.4193 12.5207 12.5335 12.245 12.7367 12.0417L14.7182 10.0625V7.44733C14.7182 7.16004 14.8324 6.88453 15.0356 6.68142L18.8652 2.85075C19.0167 2.69916 19.2097 2.59591 19.4199 2.55406C19.6301 2.51221 19.848 2.53365 20.046 2.61567V2.61675ZM18.5477 6.23183L16.8848 7.89583V9.42767H18.4167L20.0807 7.76475H19.6311C19.3438 7.76475 19.0682 7.65061 18.865 7.44745C18.6619 7.24428 18.5477 6.96873 18.5477 6.68142V6.23183Z" fill="white"/>
</svg>
